<svg width="35" height="35" viewBox="0 0 35 35" fill="none" xmlns="http://www.w3.org/2000/svg">
<path d="M23.3338 13.1248V8.74984C23.3338 5.52818 20.7222 2.9165 17.5005 2.9165C14.2788 2.9165 11.6672 5.52818 11.6672 8.74984V13.1248M5.23884 15.0965L4.36384 24.4298C4.11505 27.0835 3.99065 28.4104 4.43099 29.4352C4.81781 30.3355 5.49567 31.0799 6.35594 31.5491C7.33522 32.0832 8.66791 32.0832 11.3333 32.0832H23.6677C26.3331 32.0832 27.6658 32.0832 28.6451 31.5491C29.5053 31.0799 30.1832 30.3355 30.57 29.4352C31.0103 28.4104 30.8859 27.0835 30.6372 24.4298L29.7622 15.0965C29.5521 12.8556 29.447 11.7351 28.9431 10.888C28.4992 10.1419 27.8435 9.54479 27.0593 9.17253C26.1688 8.74984 25.0435 8.74984 22.7927 8.74984L12.2083 8.74984C9.95755 8.74984 8.83218 8.74984 7.94173 9.17252C7.15751 9.54479 6.50176 10.1419 6.05792 10.888C5.55396 11.7351 5.44892 12.8555 5.23884 15.0965Z" stroke="#FF6CCA" stroke-width="2" stroke-linecap="round" stroke-linejoin="round"/>
</svg>
