<svg width="50" height="50" viewBox="0 0 50 50" fill="none" xmlns="http://www.w3.org/2000/svg">
<path d="M4.16663 4.1665H6.8878C7.40034 4.1665 7.65661 4.1665 7.86284 4.26075C8.04458 4.34381 8.1986 4.47739 8.30652 4.64556C8.42899 4.83639 8.46523 5.09009 8.53772 5.59747L9.52377 12.4998M9.52377 12.4998L11.7152 28.6069C11.9933 30.6509 12.1324 31.6729 12.621 32.4422C13.0516 33.1201 13.6689 33.6591 14.3986 33.9944C15.2268 34.3748 16.2582 34.3748 18.321 34.3748H36.1499C38.1136 34.3748 39.0954 34.3748 39.8978 34.0215C40.6053 33.71 41.2121 33.2078 41.6505 32.5711C42.1477 31.849 42.3314 30.8846 42.6989 28.9556L45.4564 14.4784C45.5857 13.7994 45.6504 13.46 45.5567 13.1946C45.4745 12.9619 45.3123 12.7658 45.099 12.6415C44.8559 12.4998 44.5103 12.4998 43.8192 12.4998H9.52377ZM20.8333 43.7498C20.8333 44.9004 19.9006 45.8332 18.75 45.8332C17.5994 45.8332 16.6666 44.9004 16.6666 43.7498C16.6666 42.5992 17.5994 41.6665 18.75 41.6665C19.9006 41.6665 20.8333 42.5992 20.8333 43.7498ZM37.5 43.7498C37.5 44.9004 36.5672 45.8332 35.4166 45.8332C34.266 45.8332 33.3333 44.9004 33.3333 43.7498C33.3333 42.5992 34.266 41.6665 35.4166 41.6665C36.5672 41.6665 37.5 42.5992 37.5 43.7498Z" stroke="black" stroke-width="2" stroke-linecap="round" stroke-linejoin="round"/>
</svg>
